<?xml version="1.0" encoding="UTF-8" standalone="no"?>
<svg
   xmlns:dc="http://purl.org/dc/elements/1.1/"
   xmlns:cc="http://creativecommons.org/ns#"
   xmlns:rdf="http://www.w3.org/1999/02/22-rdf-syntax-ns#"
   xmlns:svg="http://www.w3.org/2000/svg"
   xmlns="http://www.w3.org/2000/svg"
   viewBox="0 0 132.56499 124.77428"
   height="124.77428"
   width="132.56499"
   id="svg2"
   version="1.1">
  <metadata
     id="metadata8">
    <rdf:RDF>
      <cc:Work
         rdf:about="">
        <dc:format>image/svg+xml</dc:format>
        <dc:type
           rdf:resource="http://purl.org/dc/dcmitype/StillImage" />
        <dc:title></dc:title>
      </cc:Work>
    </rdf:RDF>
  </metadata>
  <defs
     id="defs6" />
  <path
     id="path3684"
     d="m 55.39826,123.94368 c -3.77654,-0.68107 -9.71123,-2.35575 -13.188201,-3.72151 l -6.32177,-2.48322 0.14828,-11.8803 c 0.0816,-6.534174 -0.28376,-14.149306 -0.81179,-16.922513 -0.93892,-4.931088 -1.20629,-5.127355 -12.13359,-8.906845 C 16.945759,77.903733 11.45065,75.672721 10.879839,75.071487 10.30903,74.470252 7.62755,69.920149 4.921,64.960148 L 0,55.941966 10.13235,45.809611 c 6.845169,-6.845165 10.13236,-11.144151 10.13236,-13.251095 0,-3.773301 7.4053,-9.196279 22.063899,-16.157616 6.94672,-3.298985 10.64593,-5.92766 11.98456,-8.516294 3.649741,-7.05780267 11.711124,-10.2123696 15.237902,-5.962864 1.064509,1.282655 2.932209,1.679543 5.493284,1.167328 7.445057,-1.4890111 11.681221,5.578461 8.638029,14.411394 l -1.877392,5.449168 19.481818,29.51435 c 10.715,16.232893 22.36978,34.26562 25.89951,40.072734 5.96756,9.817854 6.26709,10.724784 4.27054,12.930954 -3.31552,3.6636 -22.73328,12.73824 -33.858823,15.82348 -11.445328,3.17392 -32.107106,4.47264 -42.199777,2.65253 z M 54.913389,97.880546 C 63.845586,93.722876 81.830039,75.795445 87.390272,65.506632 89.476,61.647139 91.680669,55.074389 92.289536,50.900519 l 1.107029,-7.588853 -6.817969,-10 C 78.699361,21.755096 79.185523,22.178129 69.616494,18.55204 55.54545,13.219956 52.1377,13.161754 42.90299,18.095784 28.80456,25.628459 21.67015,31.030293 21.63242,34.200849 c -0.0213,1.78634 -3.34257,6.065871 -8.70105,11.211342 -4.76666,4.57719 -8.66666,8.827058 -8.66666,9.444151 0,0.617095 1.54354,1.12199 3.4301,1.12199 h 3.43011 l -2.73409,3.475831 c -2.09818,2.667403 -2.41989,4.062917 -1.38319,6 0.74299,1.388293 1.99397,2.524169 2.7799595,2.524169 0.7859905,0 1.1053505,0.843627 0.7096805,1.874725 -1.16528,3.03666 3.1472,5.774979 12.9839,8.244454 11.98391,3.008526 14.11686,5.189755 14.11686,14.436375 0,4.53022 0.62123,7.472904 1.66667,7.894744 3.71009,1.49706 8.70585,0.68359 15.648679,-2.548084 z M 28.16214,45.41423 c -5.13199,-5.131994 -5.04346,-9.567861 0.28036,-14.047564 4.70882,-3.962211 8.21046,-3.977706 8.96885,-0.03969 0.28083,1.458245 1.93772,4.347389 3.68198,6.420321 3.84172,4.565627 4.06056,8.328 0.59236,10.184121 -4.5999,2.461792 -9.44672,1.559634 -13.52355,-2.51719 z m 3.79731,-11.85347 c 0.32478,-0.974334 -0.28478,-1.272316 -1.58333,-0.774015 -1.16128,0.445624 -2.11141,1.396032 -2.11141,2.112017 0,1.752523 3.03037,0.655114 3.69474,-1.338002 z"
     style="fill:#050505;stroke-width:1.33333325" />
</svg>
